# xmcd CD database file
#
# Track frame offsets:
#	150
#	28725
#	51525
#	67427
#	87150
#	116402
#	141752
#	160877
#	176030
#	188707
#	201305
#	226582
#	240907
#	265210
#
# Disc length: 3734 seconds
#
# Revision: 3
# Processed by: cddbd v1.5.2PL0 Copyright (c) Steve Scherf et al.
# Submitted via: CDex 1.51
#
DISCID=c50e940e
DTITLE=Buddy Guy - My Time After Awhile
DYEAR=1900
DGENRE=Blues
TTITLE0=A Man And The Blues
TTITLE1=I'm Ready
TTITLE2=The Things I Used To Do
TTITLE3=Stormy Monday Blues
TTITLE4=(You Give Me) Fever
TTITLE5=Sweet Little Angel
TTITLE6=My Time After Awhile
TTITLE7=Five Long Years
TTITLE8=It Hurts Me Too (When Things Go Wrong)
TTITLE9=24 Hours Of The Day
TTITLE10=One Room Country Shack
TTITLE11=Checking On My Baby
TTITLE12=Hello San Francisco
TTITLE13=So Sad This Morning
EXTD=
EXTT0=
EXTT1=
EXTT2=
EXTT3=
EXTT4=
EXTT5=
EXTT6=
EXTT7=
EXTT8=
EXTT9=
EXTT10=
EXTT11=
EXTT12=
EXTT13=
PLAYORDER=
